<mxfile host="app.diagrams.net" modified="2024-11-16T03:27:53.344Z" agent="Mozilla/5.0 (Macintosh; Intel Mac OS X 10_15_7) AppleWebKit/537.36 (KHTML, like Gecko) Chrome/129.0.0.0 Safari/537.36" etag="ELiynin3kHjqVaoqLx8u" version="24.4.0" type="device">
  <diagram name="Page-1" id="OepIzGhkB-ejv6VEIF4h">
    <mxGraphModel dx="1434" dy="767" grid="1" gridSize="10" guides="1" tooltips="1" connect="1" arrows="1" fold="1" page="1" pageScale="1" pageWidth="827" pageHeight="1169" math="0" shadow="0">
      <root>
        <mxCell id="0" />
        <mxCell id="1" parent="0" />
        <mxCell id="bcvD4Ydbi_UGRiwHKlz3-16" value="" style="rounded=0;whiteSpace=wrap;html=1;fillColor=#0066CC;" vertex="1" parent="1">
          <mxGeometry x="370" y="280" width="140" height="370" as="geometry" />
        </mxCell>
        <mxCell id="bcvD4Ydbi_UGRiwHKlz3-15" value="" style="rounded=0;whiteSpace=wrap;html=1;fillColor=#0066CC;" vertex="1" parent="1">
          <mxGeometry x="200" y="280" width="140" height="370" as="geometry" />
        </mxCell>
        <mxCell id="bcvD4Ydbi_UGRiwHKlz3-1" value="app" style="rounded=0;whiteSpace=wrap;html=1;" vertex="1" parent="1">
          <mxGeometry x="210" y="290" width="120" height="60" as="geometry" />
        </mxCell>
        <mxCell id="bcvD4Ydbi_UGRiwHKlz3-2" value="app" style="rounded=0;whiteSpace=wrap;html=1;" vertex="1" parent="1">
          <mxGeometry x="380" y="290" width="120" height="60" as="geometry" />
        </mxCell>
        <mxCell id="bcvD4Ydbi_UGRiwHKlz3-3" value="" style="rounded=0;whiteSpace=wrap;align=center;labelPosition=center;verticalLabelPosition=top;verticalAlign=bottom;horizontal=1;html=1;" vertex="1" parent="1">
          <mxGeometry x="210" y="360" width="120" height="280" as="geometry" />
        </mxCell>
        <mxCell id="bcvD4Ydbi_UGRiwHKlz3-5" value="thing: sensor-1&lt;br&gt;wifi creds: xxx" style="rounded=0;whiteSpace=wrap;html=1;" vertex="1" parent="1">
          <mxGeometry x="220" y="420" width="100" height="60" as="geometry" />
        </mxCell>
        <mxCell id="bcvD4Ydbi_UGRiwHKlz3-6" value="sensor-1" style="text;strokeColor=none;fillColor=none;html=1;fontSize=24;fontStyle=1;verticalAlign=middle;align=center;" vertex="1" parent="1">
          <mxGeometry x="220" y="690" width="100" height="40" as="geometry" />
        </mxCell>
        <mxCell id="bcvD4Ydbi_UGRiwHKlz3-7" value="littlefs" style="text;html=1;align=center;verticalAlign=middle;resizable=0;points=[];autosize=1;strokeColor=none;fillColor=none;" vertex="1" parent="1">
          <mxGeometry x="245" y="370" width="50" height="30" as="geometry" />
        </mxCell>
        <mxCell id="bcvD4Ydbi_UGRiwHKlz3-8" value="AWS IoT Cert" style="rounded=0;whiteSpace=wrap;html=1;" vertex="1" parent="1">
          <mxGeometry x="220" y="490" width="100" height="60" as="geometry" />
        </mxCell>
        <mxCell id="bcvD4Ydbi_UGRiwHKlz3-9" value="AWS IoT Private Key" style="rounded=0;whiteSpace=wrap;html=1;" vertex="1" parent="1">
          <mxGeometry x="220" y="560" width="100" height="60" as="geometry" />
        </mxCell>
        <mxCell id="bcvD4Ydbi_UGRiwHKlz3-10" value="" style="rounded=0;whiteSpace=wrap;align=center;labelPosition=center;verticalLabelPosition=top;verticalAlign=bottom;horizontal=1;html=1;" vertex="1" parent="1">
          <mxGeometry x="380" y="360" width="120" height="280" as="geometry" />
        </mxCell>
        <mxCell id="bcvD4Ydbi_UGRiwHKlz3-11" value="thing: sensor-2&lt;br&gt;wifi creds: xxx" style="rounded=0;whiteSpace=wrap;html=1;" vertex="1" parent="1">
          <mxGeometry x="390" y="420" width="100" height="60" as="geometry" />
        </mxCell>
        <mxCell id="bcvD4Ydbi_UGRiwHKlz3-12" value="littlefs" style="text;html=1;align=center;verticalAlign=middle;resizable=0;points=[];autosize=1;strokeColor=none;fillColor=none;" vertex="1" parent="1">
          <mxGeometry x="415" y="370" width="50" height="30" as="geometry" />
        </mxCell>
        <mxCell id="bcvD4Ydbi_UGRiwHKlz3-13" value="AWS IoT Cert" style="rounded=0;whiteSpace=wrap;html=1;" vertex="1" parent="1">
          <mxGeometry x="390" y="490" width="100" height="60" as="geometry" />
        </mxCell>
        <mxCell id="bcvD4Ydbi_UGRiwHKlz3-14" value="AWS IoT Private Key" style="rounded=0;whiteSpace=wrap;html=1;" vertex="1" parent="1">
          <mxGeometry x="390" y="560" width="100" height="60" as="geometry" />
        </mxCell>
        <mxCell id="bcvD4Ydbi_UGRiwHKlz3-17" value="sensor-2" style="text;strokeColor=none;fillColor=none;html=1;fontSize=24;fontStyle=1;verticalAlign=middle;align=center;" vertex="1" parent="1">
          <mxGeometry x="390" y="690" width="100" height="40" as="geometry" />
        </mxCell>
        <mxCell id="bcvD4Ydbi_UGRiwHKlz3-18" value="App Code" style="rounded=0;whiteSpace=wrap;html=1;" vertex="1" parent="1">
          <mxGeometry x="294" y="60" width="120" height="60" as="geometry" />
        </mxCell>
        <mxCell id="bcvD4Ydbi_UGRiwHKlz3-19" value="" style="shape=flexArrow;endArrow=classic;html=1;rounded=0;" edge="1" parent="1">
          <mxGeometry width="50" height="50" relative="1" as="geometry">
            <mxPoint x="340" y="130" as="sourcePoint" />
            <mxPoint x="260" y="260" as="targetPoint" />
          </mxGeometry>
        </mxCell>
        <mxCell id="bcvD4Ydbi_UGRiwHKlz3-20" value="" style="shape=flexArrow;endArrow=classic;html=1;rounded=0;" edge="1" parent="1">
          <mxGeometry width="50" height="50" relative="1" as="geometry">
            <mxPoint x="374" y="130" as="sourcePoint" />
            <mxPoint x="454" y="260" as="targetPoint" />
          </mxGeometry>
        </mxCell>
      </root>
    </mxGraphModel>
  </diagram>
</mxfile>
